<svg width="952" height="250" viewBox="0 0 952 250" fill="none" xmlns="http://www.w3.org/2000/svg">
<rect width="952" height="250" fill="white"/>
<path d="M320.273 172.364C313.121 172.364 306.97 170.848 301.818 167.818C296.697 164.758 292.758 160.515 290 155.091C287.273 149.667 285.909 143.424 285.909 136.364C285.909 129.212 287.288 122.939 290.045 117.545C292.833 112.121 296.788 107.894 301.909 104.864C307.03 101.803 313.121 100.273 320.182 100.273C326.273 100.273 331.606 101.379 336.182 103.591C340.758 105.803 344.379 108.909 347.045 112.909C349.712 116.909 351.182 121.606 351.455 127H333.182C332.667 123.515 331.303 120.712 329.091 118.591C326.909 116.439 324.045 115.364 320.5 115.364C317.5 115.364 314.879 116.182 312.636 117.818C310.424 119.424 308.697 121.773 307.455 124.864C306.212 127.955 305.591 131.697 305.591 136.091C305.591 140.545 306.197 144.333 307.409 147.455C308.652 150.576 310.394 152.955 312.636 154.591C314.879 156.227 317.5 157.045 320.5 157.045C322.712 157.045 324.697 156.591 326.455 155.682C328.242 154.773 329.712 153.455 330.864 151.727C332.045 149.97 332.818 147.864 333.182 145.409H351.455C351.152 150.742 349.697 155.439 347.091 159.5C344.515 163.53 340.955 166.682 336.409 168.955C331.864 171.227 326.485 172.364 320.273 172.364ZM357.452 171V101.182H376.225V113.364H376.952C378.225 109.03 380.361 105.758 383.361 103.545C386.361 101.303 389.816 100.182 393.725 100.182C394.695 100.182 395.74 100.242 396.861 100.364C397.983 100.485 398.967 100.652 399.816 100.864V118.045C398.907 117.773 397.649 117.53 396.043 117.318C394.437 117.106 392.967 117 391.634 117C388.786 117 386.24 117.621 383.998 118.864C381.786 120.076 380.028 121.773 378.725 123.955C377.452 126.136 376.816 128.652 376.816 131.5V171H357.452ZM421.336 172.318C416.882 172.318 412.912 171.545 409.427 170C405.942 168.424 403.185 166.106 401.155 163.045C399.155 159.955 398.155 156.106 398.155 151.5C398.155 147.621 398.867 144.364 400.291 141.727C401.715 139.091 403.655 136.97 406.109 135.364C408.564 133.758 411.352 132.545 414.473 131.727C417.624 130.909 420.927 130.333 424.382 130C428.442 129.576 431.715 129.182 434.2 128.818C436.685 128.424 438.488 127.848 439.609 127.091C440.73 126.333 441.291 125.212 441.291 123.727V123.455C441.291 120.576 440.382 118.348 438.564 116.773C436.776 115.197 434.23 114.409 430.927 114.409C427.442 114.409 424.67 115.182 422.609 116.727C420.548 118.242 419.185 120.152 418.518 122.455L400.609 121C401.518 116.758 403.306 113.091 405.973 110C408.639 106.879 412.079 104.485 416.291 102.818C420.533 101.121 425.442 100.273 431.018 100.273C434.897 100.273 438.609 100.727 442.155 101.636C445.73 102.545 448.897 103.955 451.655 105.864C454.442 107.773 456.639 110.227 458.245 113.227C459.852 116.197 460.655 119.758 460.655 123.909V171H442.291V161.318H441.745C440.624 163.5 439.124 165.424 437.245 167.091C435.367 168.727 433.109 170.015 430.473 170.955C427.836 171.864 424.791 172.318 421.336 172.318ZM426.882 158.955C429.73 158.955 432.245 158.394 434.427 157.273C436.609 156.121 438.321 154.576 439.564 152.636C440.806 150.697 441.427 148.5 441.427 146.045V138.636C440.821 139.03 439.988 139.394 438.927 139.727C437.897 140.03 436.73 140.318 435.427 140.591C434.124 140.833 432.821 141.061 431.518 141.273C430.215 141.455 429.033 141.621 427.973 141.773C425.7 142.106 423.715 142.636 422.018 143.364C420.321 144.091 419.003 145.076 418.064 146.318C417.124 147.53 416.655 149.045 416.655 150.864C416.655 153.5 417.609 155.515 419.518 156.909C421.458 158.273 423.912 158.955 426.882 158.955ZM500.823 172.364C493.671 172.364 487.52 170.848 482.368 167.818C477.247 164.758 473.308 160.515 470.55 155.091C467.823 149.667 466.459 143.424 466.459 136.364C466.459 129.212 467.838 122.939 470.595 117.545C473.383 112.121 477.338 107.894 482.459 104.864C487.58 101.803 493.671 100.273 500.732 100.273C506.823 100.273 512.156 101.379 516.732 103.591C521.308 105.803 524.929 108.909 527.595 112.909C530.262 116.909 531.732 121.606 532.005 127H513.732C513.217 123.515 511.853 120.712 509.641 118.591C507.459 116.439 504.595 115.364 501.05 115.364C498.05 115.364 495.429 116.182 493.186 117.818C490.974 119.424 489.247 121.773 488.005 124.864C486.762 127.955 486.141 131.697 486.141 136.091C486.141 140.545 486.747 144.333 487.959 147.455C489.202 150.576 490.944 152.955 493.186 154.591C495.429 156.227 498.05 157.045 501.05 157.045C503.262 157.045 505.247 156.591 507.005 155.682C508.792 154.773 510.262 153.455 511.414 151.727C512.595 149.97 513.368 147.864 513.732 145.409H532.005C531.702 150.742 530.247 155.439 527.641 159.5C525.065 163.53 521.505 166.682 516.959 168.955C512.414 171.227 507.035 172.364 500.823 172.364ZM555.548 150.909L555.593 127.682H558.411L580.775 101.182H603.002L572.957 136.273H568.366L555.548 150.909ZM538.002 171V77.9091H557.366V171H538.002ZM581.639 171L561.093 140.591L574.002 126.909L604.32 171H581.639ZM606.102 101.182H625.466V174.455C625.466 179.848 624.405 184.212 622.284 187.545C620.163 190.879 617.117 193.318 613.148 194.864C609.208 196.409 604.496 197.182 599.011 197.182C598.345 197.182 597.708 197.167 597.102 197.136C596.466 197.136 595.799 197.121 595.102 197.091V181.955C595.617 181.985 596.072 182 596.466 182C596.83 182.03 597.223 182.045 597.648 182.045C600.769 182.045 602.951 181.379 604.193 180.045C605.466 178.742 606.102 176.773 606.102 174.136V101.182ZM615.739 92.1818C612.89 92.1818 610.436 91.2273 608.375 89.3182C606.314 87.3788 605.284 85.0606 605.284 82.3636C605.284 79.697 606.314 77.4091 608.375 75.5C610.436 73.5606 612.89 72.5909 615.739 72.5909C618.648 72.5909 621.117 73.5606 623.148 75.5C625.208 77.4091 626.239 79.697 626.239 82.3636C626.239 85.0606 625.208 87.3788 623.148 89.3182C621.117 91.2273 618.648 92.1818 615.739 92.1818ZM666.123 172.364C659.062 172.364 652.956 170.864 647.805 167.864C642.683 164.833 638.729 160.621 635.941 155.227C633.153 149.803 631.759 143.515 631.759 136.364C631.759 129.152 633.153 122.848 635.941 117.455C638.729 112.03 642.683 107.818 647.805 104.818C652.956 101.788 659.062 100.273 666.123 100.273C673.183 100.273 679.274 101.788 684.395 104.818C689.547 107.818 693.517 112.03 696.305 117.455C699.092 122.848 700.486 129.152 700.486 136.364C700.486 143.515 699.092 149.803 696.305 155.227C693.517 160.621 689.547 164.833 684.395 167.864C679.274 170.864 673.183 172.364 666.123 172.364ZM666.214 157.364C669.426 157.364 672.108 156.455 674.259 154.636C676.411 152.788 678.032 150.273 679.123 147.091C680.244 143.909 680.805 140.288 680.805 136.227C680.805 132.167 680.244 128.545 679.123 125.364C678.032 122.182 676.411 119.667 674.259 117.818C672.108 115.97 669.426 115.045 666.214 115.045C662.971 115.045 660.244 115.97 658.032 117.818C655.85 119.667 654.198 122.182 653.077 125.364C651.986 128.545 651.441 132.167 651.441 136.227C651.441 140.288 651.986 143.909 653.077 147.091C654.198 150.273 655.85 152.788 658.032 154.636C660.244 156.455 662.971 157.364 666.214 157.364ZM707.041 171V77.9091H726.405V112.909H726.995C727.844 111.03 729.071 109.121 730.677 107.182C732.314 105.212 734.435 103.576 737.041 102.273C739.677 100.939 742.95 100.273 746.859 100.273C751.95 100.273 756.647 101.606 760.95 104.273C765.253 106.909 768.692 110.894 771.268 116.227C773.844 121.53 775.132 128.182 775.132 136.182C775.132 143.97 773.874 150.545 771.359 155.909C768.874 161.242 765.48 165.288 761.177 168.045C756.905 170.773 752.117 172.136 746.814 172.136C743.056 172.136 739.859 171.515 737.223 170.273C734.617 169.03 732.48 167.47 730.814 165.591C729.147 163.682 727.874 161.758 726.995 159.818H726.132V171H707.041ZM725.995 136.091C725.995 140.242 726.571 143.864 727.723 146.955C728.874 150.045 730.541 152.455 732.723 154.182C734.905 155.879 737.556 156.727 740.677 156.727C743.829 156.727 746.495 155.864 748.677 154.136C750.859 152.379 752.511 149.955 753.632 146.864C754.783 143.742 755.359 140.152 755.359 136.091C755.359 132.061 754.798 128.515 753.677 125.455C752.556 122.394 750.905 120 748.723 118.273C746.541 116.545 743.859 115.682 740.677 115.682C737.526 115.682 734.859 116.515 732.677 118.182C730.526 119.848 728.874 122.212 727.723 125.273C726.571 128.333 725.995 131.939 725.995 136.091Z" fill="black"/>
<path d="M792.97 172.182C789.97 172.182 787.395 171.121 785.243 169C783.122 166.848 782.061 164.273 782.061 161.273C782.061 158.303 783.122 155.758 785.243 153.636C787.395 151.515 789.97 150.455 792.97 150.455C795.88 150.455 798.425 151.515 800.607 153.636C802.789 155.758 803.88 158.303 803.88 161.273C803.88 163.273 803.364 165.106 802.334 166.773C801.334 168.409 800.016 169.727 798.38 170.727C796.743 171.697 794.94 172.182 792.97 172.182Z" fill="url(#paint0_linear_325_1768)"/>
<path d="M214.478 73.7246C223.901 73.7246 231.662 80.9476 231.662 89.7158V89.9121H248.562C259.435 89.9123 268.747 98.2785 268.747 108.903V164.338C268.747 174.963 259.435 183.328 248.562 183.328H156.909C146.037 183.328 136.725 174.963 136.725 164.338V108.903C136.725 98.2785 146.037 89.9123 156.909 89.9121H173.807V89.7158C173.807 80.9476 181.568 73.7248 190.991 73.7246H214.478ZM254.443 179.351H254.444C254.576 179.305 254.706 179.259 254.836 179.211H254.835C254.705 179.259 254.575 179.305 254.443 179.351ZM203 106C202.664 106 202.335 106.1 202.056 106.288C201.776 106.476 201.558 106.743 201.431 107.055L198.889 115.969C197.759 119.983 195.62 123.64 192.678 126.589C189.735 129.538 186.086 131.681 182.081 132.812L173.186 135.36C172.844 135.458 172.544 135.664 172.33 135.947C172.116 136.231 172 136.577 172 136.933C172 137.288 172.116 137.635 172.33 137.919C172.544 138.203 172.844 138.409 173.186 138.506L182.081 141.053C186.087 142.184 189.735 144.328 192.678 147.277C195.621 150.227 197.759 153.883 198.889 157.897L201.431 166.812C201.528 167.154 201.733 167.454 202.017 167.669C202.3 167.883 202.645 168 203 168C203.355 168 203.7 167.883 203.983 167.669C204.267 167.454 204.472 167.154 204.569 166.812L207.111 157.897C208.241 153.883 210.379 150.227 213.322 147.277C216.265 144.328 219.913 142.184 223.919 141.053L232.814 138.506C233.156 138.409 233.456 138.203 233.67 137.919C233.884 137.635 234 137.288 234 136.933C234 136.577 233.884 136.231 233.67 135.947C233.456 135.664 233.156 135.458 232.814 135.36L223.919 132.812C219.914 131.681 216.265 129.538 213.322 126.589C210.38 123.64 208.241 119.983 207.111 115.969L204.569 107.055C204.442 106.743 204.224 106.476 203.944 106.288C203.665 106.1 203.336 106 203 106ZM255.223 94.1777L254.836 94.0293C254.797 94.0149 254.758 94.0014 254.719 93.9873C254.888 94.0485 255.056 94.1117 255.223 94.1777ZM190.991 84.3848C187.715 84.3849 185.264 86.6723 185.264 89.7158V89.9121H220.206V89.7158C220.206 86.6723 217.754 84.3848 214.478 84.3848H190.991Z" fill="url(#paint1_linear_325_1768)"/>
<defs>
<linearGradient id="paint0_linear_325_1768" x1="281" y1="124.5" x2="813" y2="124.5" gradientUnits="userSpaceOnUse">
<stop stop-color="#35B9E0"/>
<stop offset="1" stop-color="#024AEE"/>
</linearGradient>
<linearGradient id="paint1_linear_325_1768" x1="226.077" y1="91.9908" x2="187.516" y2="143.494" gradientUnits="userSpaceOnUse">
<stop stop-color="#43BCFF"/>
<stop offset="1" stop-color="#0149ED"/>
</linearGradient>
</defs>
</svg>
